# xmcd CD database file generated by LOLA_Freedb v0.9beta0
# 
# Track frame offsets:
#      182
#      30325
#      58077
#      76715
#      104605
#      129320
#      157602
#      187225
#      203885
#      231762
# 
# Disc length: 3413 seconds
# 
# Revision: 0 
# Processed by: cddbd v1.5.2PL0 Copyright (c) Steve Scherf et al.
# Submitted via: LOLA_Freedb v0.9beta0
# 
DISCID=770d530a
DTITLE=Gerry Rafferty - North and South
DYEAR=1900
DGENRE=
TTITLE0=North and South
TTITLE1=Moonlight and Gold
TTITLE2=Tired of Talking
TTITLE3=Hearts run Dry
TTITLE4=A Dangerous Age
TTITLE5=Shipyard Town
TTITLE6=Winter´s Come
TTITLE7=Nothing ever Happens down here
TTITLE8=On a Night like this
TTITLE9=Unselfish Loves
EXTD=
EXTT0=
EXTT1=
EXTT2=
EXTT3=
EXTT4=
EXTT5=
EXTT6=
EXTT7=
EXTT8=
EXTT9=
PLAYORDER=
